Coordinates
version=1
nRows=12
nColumns=42
inDegrees=yes

Units are S.I. units (second, meters, Newtons, ...)
If the header above contains a line with 'inDegrees', this indicates whether rotational values are in degrees (yes) or radians (no).

endheader
time	pelvis_tilt	pelvis_list	pelvis_rotation	pelvis_tx	pelvis_ty	pelvis_tz	hip_flexion_r	hip_adduction_r	hip_rotation_r	knee_angle_r	knee_adduction_r	knee_angle_r_beta	ankle_angle_r	subtalar_angle_r	mtp_angle_r	hip_flexion_l	hip_adduction_l	hip_rotation_l	knee_angle_l	knee_adduction_l	knee_angle_l_beta	ankle_angle_l	subtalar_angle_l	mtp_angle_l	lumbar_extension	lumbar_bending	lumbar_rotation	arm_flex_r	arm_add_r	arm_rot_r	elbow_flex_r	pro_sup_r	wrist_flex_r	wrist_dev_r	arm_flex_l	arm_add_l	arm_rot_l	elbow_flex_l	pro_sup_l	wrist_flex_l	wrist_dev_l
      0.00000000	     -5.45258467	     -2.37945847	      3.37654019	     -1.78366463	      0.96193051	     -0.10777271	     14.39114802	      2.52219725	    -10.23850387	     57.24895455	     -1.56755162	      0.99918275	      2.42589915	    -17.69135170	     -9.63531359	     13.34715357	      0.98782460	      6.87267853	     10.48345377	      0.74115259	      0.18297079	      5.78520358	     -3.50850758	     -9.63531359	     -8.95243504	     -1.75098178	     -6.28261363	     -4.51413722	     -6.82685513	     -6.00264886	     20.90114660	     90.00000001	      0.00000000	      0.00000000	      4.12038966	    -14.46118006	     -7.54701488	     28.55196693	     90.00000001	      0.00000000	      0.00000000
      0.01000000	     -5.43400385	     -2.55512623	      3.51063208	     -1.77340005	      0.96291628	     -0.10901544	     15.86746311	      2.56449639	     -9.89158054	     57.16820121	     -1.31904545	      0.99777334	      3.08993843	    -17.56078604	     -9.60694883	     12.33953557	      0.92313379	      6.83322356	      9.92241854	      0.49539480	      0.17317887	      6.18623886	     -3.20125554	     -9.60694883	     -8.85582363	     -1.30380961	     -6.56733107	     -4.86634884	     -6.74760855	     -6.06818445	     20.27162414	     90.00000001	      0.00000000	      0.00000000	      4.74386682	    -14.45773733	     -7.31994150	     29.32075088	     90.00000001	      0.00000000	      0.00000000
      0.02000000	     -5.48914717	     -2.63168916	      3.61727682	     -1.76306130	      0.96364373	     -0.10999994	     17.30893143	      2.55506392	     -9.24070865	     56.72542169	     -0.91040214	      0.99004538	      3.67068069	    -17.46300777	     -9.57707666	     11.30729638	      0.93845698	      6.95536996	      9.16539628	      0.27076886	      0.15996634	      6.62894061	     -2.79212871	     -9.57707666	     -8.66283485	     -1.03242179	     -6.83535380	     -5.20177861	     -6.58834263	     -6.31410842	     19.59920651	     90.00000001	      0.00000000	      0.00000000	      5.25806741	    -14.57064418	     -6.92476952	     30.28990186	     90.00000001	      0.00000000	      0.00000000
      0.03000000	     -5.46879144	     -2.63944021	      3.67315119	     -1.75294833	      0.96428304	     -0.11079304	     18.62398897	      2.50426381	     -8.44721842	     56.03863694	     -0.42353571	      0.97805872	      4.11159907	    -17.53525601	     -9.54289765	     10.14299623	      1.00181957	      7.16943794	      8.29750443	      0.05637067	      0.14481877	      7.01097146	     -2.37664250	     -9.54289765	     -8.63234935	     -0.83324917	     -7.08552067	     -5.45874415	     -6.37452142	     -6.82642685	     18.98658878	     90.00000001	      0.00000000	      0.00000000	      5.71230918	    -14.84590734	     -6.31001641	     31.43053571	     90.00000001	      0.00000000	      0.00000000
      0.04000000	     -5.07921653	     -2.59048911	      3.76429644	     -1.74250259	      0.96523601	     -0.11167740	     19.33718212	      2.38357579	     -7.67984524	     54.94636517	      0.09663016	      0.95899498	      4.19530604	    -17.73945234	     -9.46289066	      8.46073123	      1.08861559	      7.39164379	      7.28195851	     -0.16009683	      0.12709415	      7.01825536	     -2.28052159	     -9.46289066	     -9.03115163	     -0.67930291	     -7.20721044	     -5.64115109	     -6.05905290	     -8.37690548	     18.30228500	     90.00000001	      0.00000000	      0.00000000	      6.16177471	    -15.24894298	     -4.92528233	     32.85883083	     90.00000001	      0.00000000	      0.00000000
      0.05000000	     -5.18688814	     -2.55737157	      3.88582983	     -1.73222696	      0.96518273	     -0.11252917	     20.65200583	      2.32853351	     -7.46477644	     53.74320336	      0.02776339	      0.93799585	      4.56670743	    -17.70722739	     -9.43577120	      7.61837489	      1.21427439	      7.36337174	      6.80713152	     -0.36624560	      0.11880686	      7.45989927	     -2.05912296	     -9.43577120	     -8.81345558	     -0.54265579	     -7.49977524	     -6.07963039	     -5.92810639	     -8.58329952	     17.98673242	     90.00000001	      0.00000000	      0.00000000	      6.69235136	    -15.40507031	     -4.74463086	     33.66560028	     90.00000001	      0.00000000	      0.00000000
      0.06000000	     -4.75299888	     -2.59216716	      4.03854575	     -1.72167579	      0.96574627	     -0.11326000	     21.11279681	      2.40978869	     -7.08025733	     52.01303838	      0.15052596	      0.90779877	      4.58871103	    -17.91203227	     -9.36687872	      5.83156715	      1.14393943	      7.79848578	      5.64517716	     -0.50931593	      0.09852693	      7.72204758	     -1.71029829	     -9.36687872	     -9.25608773	     -0.29626385	     -7.74580340	     -6.27782348	     -5.68551393	     -9.66239245	     17.48533776	     90.00000001	      0.00000000	      0.00000000	      7.12498871	    -15.77881045	     -3.80563225	     35.02401569	     90.00000001	      0.00000000	      0.00000000
      0.07000000	     -4.49734995	     -2.56704319	      4.21638906	     -1.71115988	      0.96578412	     -0.11401222	     21.72847741	      2.43769664	     -7.04314596	     50.10441818	     -0.05690923	      0.87448707	      4.74348157	    -17.94750473	     -9.28127873	      4.41680678	      1.17618696	      8.02877485	      4.84317681	     -0.66835332	      0.08452938	      8.03064378	     -1.53106856	     -9.28127873	     -9.47860274	     -0.12862986	     -7.99715497	     -6.60018825	     -5.48891925	    -10.49613654	     17.13096711	     90.00000001	      0.00000000	      0.00000000	      7.65190466	    -16.05191439	     -3.20467612	     36.05355524	     90.00000001	      0.00000000	      0.00000000
      0.08000000	     -4.71890766	     -2.27476015	      4.33546599	     -1.70097820	      0.96481450	     -0.11487618	     22.95889258	      2.04789241	     -7.02392613	     48.32179389	     -0.24370050	      0.84337440	      4.92563675	    -17.74032431	     -9.26309555	      3.84866190	      1.60071536	      7.77235132	      4.69885334	     -0.81801297	      0.08201046	      8.39770235	     -1.39837195	     -9.26309555	     -9.18020864	     -0.29890591	     -8.25997269	     -7.13161222	     -5.35432746	    -10.54845325	     17.04360204	     90.00000001	      0.00000000	      0.00000000	      8.25583291	    -16.19007913	     -3.11522384	     36.72012260	     90.00000001	      0.00000000	      0.00000000
      0.09000000	     -4.29619927	     -2.34480261	      4.55169669	     -1.69045078	      0.96467228	     -0.11556195	     23.09061794	      2.28154487	     -6.64653761	     45.74124599	     -0.27819184	      0.79833535	      4.84809751	    -18.02519279	     -9.21097504	      2.07478392	      1.48481580	      8.35049966	      3.51179189	     -1.02853497	      0.06129233	      8.92380555	     -0.85600175	     -9.21097504	     -9.62742516	      0.00091907	     -8.61221967	     -7.34338675	     -5.22891961	    -11.11785719	     16.78979368	     90.00000001	      0.00000000	      0.00000000	      8.60731141	    -16.62135315	     -2.19907747	     38.05719805	     90.00000001	      0.00000000	      0.00000000
      0.10000000	     -3.99858415	     -2.25259509	      4.69806305	     -1.67988250	      0.96407853	     -0.11612656	     23.34265078	      2.30356556	     -6.59937464	     43.08309219	     -0.51522327	      0.75194181	      4.73959571	    -17.99225707	     -9.14195226	      0.66364313	      1.56271687	      8.46892522	      2.86418206	     -1.17934096	      0.04998941	      9.28542389	     -0.63237284	     -9.14195226	     -9.92642521	      0.08879294	     -8.83515724	     -7.66186081	     -5.06595814	    -11.61037104	     16.64887663	     90.00000001	      0.00000000	      0.00000000	      9.13426352	    -16.93877562	     -1.59099235	     38.96840519	     90.00000001	      0.00000000	      0.00000000
      0.11000000	     -3.95974470	     -2.04796031	      4.83751704	     -1.66954228	      0.96286195	     -0.11676043	     23.84336965	      2.15465761	     -6.27492953	     40.34698071	     -0.57546384	      0.70418766	      4.63359314	    -17.93258485	     -9.08885154	     -0.36191427	      1.80655674	      8.57088509	      2.39582444	     -1.32225913	      0.04181502	      9.79471310	     -0.37397564	     -9.08885154	     -9.95511993	      0.04099284	     -9.11535002	     -8.00577351	     -4.94299763	    -11.81314651	     16.56015379	     90.00000001	      0.00000000	      0.00000000	      9.60250954	    -17.24011521	     -1.09210745	     39.83059085	     90.00000001	      0.00000000	      0.00000000
